<?xml version="1.0" standalone="no"?>
<!DOCTYPE svg PUBLIC "-//W3C//DTD SVG 20010904//EN"
 "http://www.w3.org/TR/2001/REC-SVG-20010904/DTD/svg10.dtd">
<svg version="1.0" xmlns="http://www.w3.org/2000/svg"
 width="500.000000pt" height="500.000000pt" viewBox="0 0 500.000000 500.000000"
 preserveAspectRatio="xMidYMid meet">
<metadata>
Created by potrace 1.14, written by Peter Selinger 2001-2017
</metadata>
<g transform="translate(0.000000,500.000000) scale(0.100000,-0.100000)"
fill="#000000" stroke="none">
<path d="M320 3702 c-127 -76 -200 -142 -255 -233 -100 -163 -75 -370 62 -515
79 -84 170 -136 306 -175 69 -20 374 -94 428 -104 14 -3 91 -18 170 -35 79
-16 158 -32 174 -35 38 -6 72 -13 110 -21 17 -4 39 -8 50 -10 11 -2 31 -5 45
-8 14 -3 41 -9 60 -12 38 -7 58 -11 93 -19 12 -3 36 -7 52 -9 17 -3 109 -21
205 -40 96 -19 186 -37 200 -40 14 -2 50 -10 80 -16 30 -6 71 -13 90 -16 19
-3 38 -8 41 -10 3 -2 21 -6 40 -9 145 -24 605 -133 1349 -319 62 -16 246 -72
341 -105 199 -69 418 -190 510 -283 125 -125 184 -262 160 -371 -6 -23 -9 -43
-7 -44 6 -7 65 24 134 70 158 106 240 247 240 413 0 120 -56 230 -162 322 -89
77 -147 106 -311 155 -45 14 -321 79 -385 91 -14 3 -113 23 -220 45 -107 21
-208 42 -225 45 -52 9 -89 16 -135 26 -25 5 -59 12 -77 15 -17 3 -87 16 -155
29 -68 14 -136 27 -152 30 -16 3 -52 10 -80 16 -28 6 -60 12 -71 14 -11 2 -54
11 -95 20 -41 8 -88 17 -105 20 -16 3 -41 8 -55 11 -14 3 -36 8 -50 11 -14 2
-45 9 -70 14 -25 6 -54 12 -65 14 -49 10 -269 60 -355 81 -52 13 -109 26 -127
30 -18 3 -45 10 -60 16 -15 6 -29 10 -31 9 -1 -1 -15 1 -30 4 -15 4 -36 8 -47
10 -36 8 -185 45 -405 102 -118 31 -219 57 -225 58 -11 2 -30 8 -195 61 -133
43 -260 95 -343 142 -33 18 -61 33 -63 33 -3 0 -31 19 -62 42 -205 151 -295
307 -268 466 4 23 4 42 -1 41 -4 0 -28 -12 -53 -27z"/>
<path d="M4322 3724 c4 -3 49 -20 101 -38 217 -75 386 -224 489 -431 29 -57
68 -168 68 -191 0 -8 4 -13 8 -10 5 3 9 156 10 340 l2 336 -342 0 c-188 0
-339 -3 -336 -6z"/>
<path d="M4 1553 l1 -278 1014 -3 c558 -1 1012 0 1010 3 -5 4 -54 9 -239 20
-91 6 -139 10 -225 20 -22 2 -69 7 -105 10 -36 3 -78 8 -95 11 -16 3 -46 7
-65 9 -55 6 -140 19 -197 29 -526 98 -869 231 -1044 407 -27 27 -50 49 -52 49
-2 0 -3 -125 -3 -277z"/>
</g>
</svg>
